<?xml version="1.0" encoding="UTF-8"?>
<svg version="1.1" viewBox="0 0 2048 1151" width="889" height="500" xmlns="http://www.w3.org/2000/svg">
<path transform="translate(924,495)" d="m0 0h5l1 1v10l11-7 9-4h13l8 4 5 6 1 2h2l5-5 7-5 6-2h13l9 4 5 5 2 3 1 5-1 58-1 1h-24l-2-1-1-46-2-4-2-1h-7l-6 4-1 2-1 45-1 1h-26l-1-1v-26l-1-21-3-4h-8l-6 4-1 2-1 46h-27l-1-51-1-20 5-2 9-1z" fill="#fff"/>
<path transform="translate(1069,495)" d="m0 0h14l8 3 6 5 3-8 11 1 12 3 1 3-2 18v24l1 25-3 2-13 1h-10l-2-7-12 7-4 1h-11l-9-3-8-6-7-10-4-12v-16l4-12 6-9 8-6zm7 23-6 4-3 5-1 10 3 7 6 5 2 1h8l6-3 4-5 1-3v-11l-4-6-6-4z" fill="#fff"/>
<path transform="translate(1020,610)" d="m0 0h15l13 4 9 7 6 8 4 12v16l-3 10-6 9-8 7-9 4-5 1h-16l-10-3-9-6-7-8-5-12v-19l5-13 9-10 12-6zm4 23-6 4-3 5-1 10 3 8 5 4 2 1h8l6-4 3-5 1-10-3-7-5-5-2-1z" fill="#fff"/>
<path transform="translate(1166,610)" d="m0 0h14l11 4 10 9 5 7 3 10v9l-5 5-32 2h-12l4 6 6 4 9 1 9-2 7-4 4 1 7 12-1 5-5 4-10 4-5 1h-18l-13-4-8-6-7-8-4-9-1-5v-12l3-11 4-8 5-6 9-6zm-1 21-5 4-1 7h10l12-2 1-2-5-6-2-1z" fill="#fff"/>
<path transform="translate(936,585)" d="m0 0 9 1 17 3 1 1v12l-1 10h20l1 3-1 22h-19v15l2 10 2 2h17v12l-2 6-8 4-8 2h-16l-9-4-4-5-2-11 1-30h-7l-1-1-1-21 7-2h2z" fill="#fff"/>
<path transform="translate(1201,470)" d="m0 0 10 1 16 3 1 1v11l-1 11h20l1 3-1 22h-19v16l1 8 3 3h10l7-1v12l-2 7-8 4-9 2h-15l-9-4-4-5-2-8v-33l-8-1v-21l8-3z" fill="#fff"/>
<path transform="translate(1157,495)" d="m0 0 4 1v10l15-8 3-1h7l1 1v28l-1 1-17 1-4 1v41l-2 1h-26l-1-2v-38l-2-23-1-8 8-2z" fill="#fff"/>
<path transform="translate(1099,610)" d="m0 0h4l1 4v7l14-8 11-1 1 1-1 29-17 1-4 2-1 5v35l-1 1h-27l-1-50-2-15v-6z" fill="#fff"/>
<path transform="translate(874,490)" d="m0 0h6l6 9 5 10-1 2-10 1-5 3v6l10 12 4 9v8l-3 8-5 5-9 6-13 4h-6l-6-8-6-12 16-4 3-3-2-7-10-11-3-7v-9l4-8 9-8 8-4z" fill="#fff"/>
<path transform="translate(905,605)" d="m0 0h5l8 13 2 4v4l-10 1-5 3v6l9 11 4 7 1 3v8l-3 8-4 5-12 7-10 3h-7l-6-8-6-12 16-4 3-3-2-7-7-7-5-8-1-3v-9l4-8 9-8 12-5z" fill="#fff"/>
</svg>
